<?xml version="1.0" encoding="UTF-8" standalone="no" ?>
<!DOCTYPE svg PUBLIC "-//W3C//DTD SVG 1.1//EN" "http://www.w3.org/Graphics/SVG/1.1/DTD/svg11.dtd">
<svg xmlns="http://www.w3.org/2000/svg" xmlns:xlink="http://www.w3.org/1999/xlink" version="1.1" width="1280" height="1024" viewBox="0 0 1280 1024" xml:space="preserve">
<desc>Created with Fabric.js 5.3.0</desc>
<defs>
</defs>
<g transform="matrix(1 0 0 1 640 512)" id="background-logo"  >
<rect style="stroke: none; stroke-width: 0; stroke-dasharray: none; stroke-linecap: butt; stroke-dashoffset: 0; stroke-linejoin: miter; stroke-miterlimit: 4; fill: rgb(0,0,0); fill-rule: nonzero; opacity: 1;"  paint-order="stroke"  x="-640" y="-512" rx="0" ry="0" width="1280" height="1024" />
</g>
<g transform="matrix(1.9211538461538462 0 0 1.9211538461538462 641.8965959934802 528.7411979828595)" id="text-logo"  >
<g style=""  paint-order="stroke"   >
		<g transform="matrix(1 0 0 1 5.684342e-14 0)" id="text-logo-path-0"  >
<path style="stroke: rgb(255,255,255); stroke-width: 0; stroke-dasharray: none; stroke-linecap: butt; stroke-dashoffset: 0; stroke-linejoin: miter; stroke-miterlimit: 4; fill: rgb(255,255,255); fill-rule: nonzero; opacity: 1;"  paint-order="stroke"  transform=" translate(-128.725, 140.76000000000002)" d="M 22.03 -263.98 L 70.99 0 L 79.15 0 L 110.98 -201.96 L 148.51 0 L 156.67 0 L 198.29 -263.98 C 199.92 -274.18 210.94 -279.07 219.5 -279.07 L 219.1 -285.6 L 175.85 -285.6 L 175.44 -279.07 C 184.01 -279.07 191.76 -274.18 190.13 -263.98 L 159.94 -71.4 L 122.81 -269.69 C 126.89 -275.81 135.05 -279.07 141.98 -279.07 L 141.58 -285.6 L 77.93 -285.6 L 77.52 -279.07 C 86.09 -279.07 97.51 -274.18 99.55 -263.98 L 106.49 -226.44 L 82.42 -71.4 L 46.51 -263.98 C 44.47 -274.18 51.82 -279.07 60.38 -279.07 L 59.98 -285.6 L 0.41 -285.6 L 0 -279.07 C 8.57 -279.07 19.99 -274.18 22.03 -263.98 Z M 237.05 4.08 C 248.88 4.08 257.45 -4.08 257.45 -16.32 C 257.45 -28.15 249.29 -36.72 237.05 -36.72 C 225.22 -36.72 216.65 -28.56 216.65 -16.32 C 216.65 -4.49 224.81 4.08 237.05 4.08 Z" stroke-linecap="round" />
</g>
</g>
</g>
</svg>