<?xml version="1.0" encoding="UTF-8"?>
<!DOCTYPE svg PUBLIC "-//W3C//DTD SVG 1.1//EN" "http://www.w3.org/Graphics/SVG/1.1/DTD/svg11.dtd">
<svg xmlns="http://www.w3.org/2000/svg" version="1.1" width="1280px" height="193px" style="shape-rendering:geometricPrecision; text-rendering:geometricPrecision; image-rendering:optimizeQuality; fill-rule:evenodd; clip-rule:evenodd" xmlns:xlink="http://www.w3.org/1999/xlink">
<g><path style="opacity:1" fill="#010101" d="M -0.5,-0.5 C 234.5,-0.5 469.5,-0.5 704.5,-0.5C 682.569,7.32449 673.403,22.9912 677,46.5C 679.72,56.6051 684.053,65.9384 690,74.5C 700,86.5 710,98.5 720,110.5C 728.03,120.225 733.696,131.225 737,143.5C 738.816,155.065 737.149,166.065 732,176.5C 726.072,185.147 717.905,188.314 707.5,186C 701.437,183.271 696.603,179.104 693,173.5C 684.561,157.213 680.061,139.879 679.5,121.5C 677.167,121.5 674.833,121.5 672.5,121.5C 672.5,144.167 672.5,166.833 672.5,189.5C 674.5,189.5 676.5,189.5 678.5,189.5C 678.234,185.395 678.734,181.395 680,177.5C 680.68,175.487 682.013,174.154 684,173.5C 688.259,178.798 693.093,183.631 698.5,188C 702.157,189.822 705.824,191.322 709.5,192.5C 531.167,192.5 352.833,192.5 174.5,192.5C 182.598,189.312 185.765,183.312 184,174.5C 179.078,165.238 171.911,163.071 162.5,168C 154.691,178.194 156.358,186.361 167.5,192.5C 111.5,192.5 55.5,192.5 -0.5,192.5C -0.5,130.5 -0.5,68.5 -0.5,6.5C 6.15847,6.57837 10.9918,9.57837 14,15.5C 25.0121,73.4221 35.5121,131.422 45.5,189.5C 47.5,189.5 49.5,189.5 51.5,189.5C 58.4397,145.528 65.273,101.528 72,57.5C 80.7681,101.372 88.9348,145.372 96.5,189.5C 98.5,189.5 100.5,189.5 102.5,189.5C 111.267,130.355 120.767,71.3554 131,12.5C 134.213,8.47647 138.38,6.47647 143.5,6.5C 143.5,5.16667 143.5,3.83333 143.5,2.5C 133.833,2.5 124.167,2.5 114.5,2.5C 114.5,3.83333 114.5,5.16667 114.5,6.5C 120.181,6.68695 123.514,9.52028 124.5,15C 117.706,56.9262 110.873,98.7595 104,140.5C 96.4376,98.2933 88.6042,56.1266 80.5,14C 82.635,8.75466 86.635,6.25466 92.5,6.5C 92.5,5.16667 92.5,3.83333 92.5,2.5C 78.5,2.5 64.5,2.5 50.5,2.5C 50.5,3.83333 50.5,5.16667 50.5,6.5C 56.1661,6.58306 60.6661,8.9164 64,13.5C 65.9253,22.6411 67.7586,31.8077 69.5,41C 64.2084,73.8302 58.875,106.664 53.5,139.5C 45.058,96.891 37.2247,54.2243 30,11.5C 32.1447,7.84825 35.3113,6.18158 39.5,6.5C 39.5,5.16667 39.5,3.83333 39.5,2.5C 26.1667,2.5 12.8333,2.5 -0.5,2.5C -0.5,1.5 -0.5,0.5 -0.5,-0.5 Z"/></g>
<g><path style="opacity:1" fill="#f2f2f2" d="M 704.5,-0.5 C 708.833,-0.5 713.167,-0.5 717.5,-0.5C 721.176,0.677626 724.843,2.17763 728.5,4C 732.785,8.08926 736.951,12.2559 741,16.5C 741.772,16.3552 742.439,16.0219 743,15.5C 745.053,11.4136 745.887,7.08026 745.5,2.5C 747.5,2.5 749.5,2.5 751.5,2.5C 751.5,20.1667 751.5,37.8333 751.5,55.5C 749.396,55.7989 747.396,55.4656 745.5,54.5C 743.482,40.6126 738.982,27.6126 732,15.5C 725.443,6.42246 716.61,3.25579 705.5,6C 699.608,8.89243 695.441,13.3924 693,19.5C 689.764,32.5369 691.431,44.8703 698,56.5C 710.853,73.5317 724.186,90.1984 738,106.5C 754.621,129.128 756.954,153.128 745,178.5C 738.92,185.615 731.42,190.281 722.5,192.5C 718.167,192.5 713.833,192.5 709.5,192.5C 705.824,191.322 702.157,189.822 698.5,188C 693.093,183.631 688.259,178.798 684,173.5C 682.013,174.154 680.68,175.487 680,177.5C 678.734,181.395 678.234,185.395 678.5,189.5C 676.5,189.5 674.5,189.5 672.5,189.5C 672.5,166.833 672.5,144.167 672.5,121.5C 674.833,121.5 677.167,121.5 679.5,121.5C 680.061,139.879 684.561,157.213 693,173.5C 696.603,179.104 701.437,183.271 707.5,186C 717.905,188.314 726.072,185.147 732,176.5C 737.149,166.065 738.816,155.065 737,143.5C 733.696,131.225 728.03,120.225 720,110.5C 710,98.5 700,86.5 690,74.5C 684.053,65.9384 679.72,56.6051 677,46.5C 673.403,22.9912 682.569,7.32449 704.5,-0.5 Z"/></g>
<g><path style="opacity:1" fill="#020202" d="M 717.5,-0.5 C 887.833,-0.5 1058.17,-0.5 1228.5,-0.5C 1214.75,5.09139 1205.58,15.0914 1201,29.5C 1194.07,51.1194 1191.24,73.2861 1192.5,96C 1191.61,118.351 1194.44,140.185 1201,161.5C 1205.53,176.665 1215.03,186.999 1229.5,192.5C 1132.17,192.5 1034.83,192.5 937.5,192.5C 951.918,190.252 960.752,181.919 964,167.5C 964.333,116.167 964.667,64.8333 965,13.5C 967.215,8.477 971.048,6.14367 976.5,6.5C 976.5,5.16667 976.5,3.83333 976.5,2.5C 966.833,2.5 957.167,2.5 947.5,2.5C 947.5,3.83333 947.5,5.16667 947.5,6.5C 952.147,6.57139 955.647,8.57139 958,12.5C 958.667,64.8333 958.667,117.167 958,169.5C 953.47,183.354 943.97,188.854 929.5,186C 922.69,182.17 918.523,176.337 917,168.5C 916.333,116.5 916.333,64.5 917,12.5C 919.353,8.57139 922.853,6.57139 927.5,6.5C 927.5,5.16667 927.5,3.83333 927.5,2.5C 914.5,2.5 901.5,2.5 888.5,2.5C 888.5,3.83333 888.5,5.16667 888.5,6.5C 893.691,6.67572 897.524,9.00905 900,13.5C 900.333,64.8333 900.667,116.167 901,167.5C 904.254,181.925 913.087,190.258 927.5,192.5C 859.167,192.5 790.833,192.5 722.5,192.5C 731.42,190.281 738.92,185.615 745,178.5C 756.954,153.128 754.621,129.128 738,106.5C 724.186,90.1984 710.853,73.5317 698,56.5C 691.431,44.8703 689.764,32.5369 693,19.5C 695.441,13.3924 699.608,8.89243 705.5,6C 716.61,3.25579 725.443,6.42246 732,15.5C 738.982,27.6126 743.482,40.6126 745.5,54.5C 747.396,55.4656 749.396,55.7989 751.5,55.5C 751.5,37.8333 751.5,20.1667 751.5,2.5C 749.5,2.5 747.5,2.5 745.5,2.5C 745.887,7.08026 745.053,11.4136 743,15.5C 742.439,16.0219 741.772,16.3552 741,16.5C 736.951,12.2559 732.785,8.08926 728.5,4C 724.843,2.17763 721.176,0.677626 717.5,-0.5 Z"/></g>
<g><path style="opacity:1" fill="#f3f3f3" d="M 1228.5,-0.5 C 1232.83,-0.5 1237.17,-0.5 1241.5,-0.5C 1251.06,2.19427 1258.56,7.86094 1264,16.5C 1272.93,34.2404 1278.1,52.907 1279.5,72.5C 1279.5,86.1667 1279.5,99.8333 1279.5,113.5C 1278.34,132.705 1274.17,151.372 1267,169.5C 1261.74,180.938 1253.24,188.605 1241.5,192.5C 1237.5,192.5 1233.5,192.5 1229.5,192.5C 1215.03,186.999 1205.53,176.665 1201,161.5C 1194.44,140.185 1191.61,118.351 1192.5,96C 1191.24,73.2861 1194.07,51.1194 1201,29.5C 1205.58,15.0914 1214.75,5.09139 1228.5,-0.5 Z"/></g>
<g><path style="opacity:1" fill="#030303" d="M 1241.5,-0.5 C 1254.17,-0.5 1266.83,-0.5 1279.5,-0.5C 1279.5,23.8333 1279.5,48.1667 1279.5,72.5C 1278.1,52.907 1272.93,34.2404 1264,16.5C 1258.56,7.86094 1251.06,2.19427 1241.5,-0.5 Z"/></g>
<g><path style="opacity:1" fill="#f3f3f3" d="M -0.5,2.5 C 12.8333,2.5 26.1667,2.5 39.5,2.5C 39.5,3.83333 39.5,5.16667 39.5,6.5C 35.3113,6.18158 32.1447,7.84825 30,11.5C 37.2247,54.2243 45.058,96.891 53.5,139.5C 58.875,106.664 64.2084,73.8302 69.5,41C 67.7586,31.8077 65.9253,22.6411 64,13.5C 60.6661,8.9164 56.1661,6.58306 50.5,6.5C 50.5,5.16667 50.5,3.83333 50.5,2.5C 64.5,2.5 78.5,2.5 92.5,2.5C 92.5,3.83333 92.5,5.16667 92.5,6.5C 86.635,6.25466 82.635,8.75466 80.5,14C 88.6042,56.1266 96.4376,98.2933 104,140.5C 110.873,98.7595 117.706,56.9262 124.5,15C 123.514,9.52028 120.181,6.68695 114.5,6.5C 114.5,5.16667 114.5,3.83333 114.5,2.5C 124.167,2.5 133.833,2.5 143.5,2.5C 143.5,3.83333 143.5,5.16667 143.5,6.5C 138.38,6.47647 134.213,8.47647 131,12.5C 120.767,71.3554 111.267,130.355 102.5,189.5C 100.5,189.5 98.5,189.5 96.5,189.5C 88.9348,145.372 80.7681,101.372 72,57.5C 65.273,101.528 58.4397,145.528 51.5,189.5C 49.5,189.5 47.5,189.5 45.5,189.5C 35.5121,131.422 25.0121,73.4221 14,15.5C 10.9918,9.57837 6.15847,6.57837 -0.5,6.5C -0.5,5.16667 -0.5,3.83333 -0.5,2.5 Z"/></g>
<g><path style="opacity:1" fill="#f5f5f5" d="M 216.5,2.5 C 233.556,2.0577 250.556,2.5577 267.5,4C 285.543,9.5472 296.043,21.7139 299,40.5C 301.808,57.8082 299.141,74.1416 291,89.5C 285.463,96.3442 278.629,101.344 270.5,104.5C 281.292,128.71 291.792,153.043 302,177.5C 306.257,182.712 311.757,185.378 318.5,185.5C 318.5,186.833 318.5,188.167 318.5,189.5C 308.81,189.832 299.144,189.498 289.5,188.5C 277.639,161.582 265.972,134.582 254.5,107.5C 251.232,106.513 247.898,106.18 244.5,106.5C 244.333,130.502 244.5,154.502 245,178.5C 247.044,183.048 250.544,185.381 255.5,185.5C 255.5,186.833 255.5,188.167 255.5,189.5C 242.5,189.5 229.5,189.5 216.5,189.5C 216.5,188.167 216.5,186.833 216.5,185.5C 222.367,184.995 226.2,181.995 228,176.5C 228.667,122.167 228.667,67.8333 228,13.5C 225.524,9.00905 221.691,6.67572 216.5,6.5C 216.5,5.16667 216.5,3.83333 216.5,2.5 Z"/></g>
<g><path style="opacity:1" fill="#f3f3f3" d="M 394.5,151.5 C 388.843,150.834 383.01,150.501 377,150.5C 370.793,150.504 364.96,151.171 359.5,152.5C 357.458,161.412 356.291,170.412 356,179.5C 357.811,183.655 360.977,185.655 365.5,185.5C 365.5,186.833 365.5,188.167 365.5,189.5C 355.833,189.5 346.167,189.5 336.5,189.5C 336.5,188.167 336.5,186.833 336.5,185.5C 342.858,185.085 347.358,182.085 350,176.5C 359.892,118.814 369.892,61.1474 380,3.5C 382.041,2.57692 384.208,2.24358 386.5,2.5C 396.021,61.6283 406.188,120.628 417,179.5C 420.195,183.51 424.362,185.51 429.5,185.5C 429.5,186.833 429.5,188.167 429.5,189.5C 416.5,189.5 403.5,189.5 390.5,189.5C 390.587,185.759 392.587,183.759 396.5,183.5C 398.846,181.763 399.846,179.43 399.5,176.5C 397.954,168.007 396.287,159.674 394.5,151.5 Z"/></g>
<g><path style="opacity:1" fill="#f3f3f3" d="M 428.5,2.5 C 441.5,2.5 454.5,2.5 467.5,2.5C 467.5,3.83333 467.5,5.16667 467.5,6.5C 462.508,6.65682 459.508,9.15682 458.5,14C 466.719,56.0944 474.552,98.2611 482,140.5C 487.808,107.517 492.975,74.3505 497.5,41C 497.006,31.1985 495.172,21.6985 492,12.5C 488.811,8.49211 484.645,6.49211 479.5,6.5C 479.5,5.16667 479.5,3.83333 479.5,2.5C 493.5,2.5 507.5,2.5 521.5,2.5C 521.5,3.83333 521.5,5.16667 521.5,6.5C 515.635,6.25466 511.635,8.75466 509.5,14C 517.333,55.8333 525.167,97.6667 533,139.5C 540.417,96.9077 547.084,54.2411 553,11.5C 550.681,8.22665 547.514,6.55999 543.5,6.5C 543.5,5.16667 543.5,3.83333 543.5,2.5C 553.167,2.5 562.833,2.5 572.5,2.5C 572.5,3.83333 572.5,5.16667 572.5,6.5C 566.396,6.46838 561.896,9.13505 559,14.5C 549.378,72.7737 540.211,131.107 531.5,189.5C 529.5,189.5 527.5,189.5 525.5,189.5C 517.974,145.392 509.807,101.392 501,57.5C 493.97,101.482 487.136,145.482 480.5,189.5C 478.5,189.5 476.5,189.5 474.5,189.5C 464.12,130.765 453.287,72.0986 442,13.5C 438.666,8.9164 434.166,6.58306 428.5,6.5C 428.5,5.16667 428.5,3.83333 428.5,2.5 Z"/></g>
<g><path style="opacity:1" fill="#f7f7f7" d="M 861.5,36.5 C 859.972,35.1979 858.972,33.5313 858.5,31.5C 858.53,22.7513 855.53,15.2513 849.5,9C 843.285,7.58449 836.952,7.08449 830.5,7.5C 830.333,64.1676 830.5,120.834 831,177.5C 832.968,182.742 836.802,185.409 842.5,185.5C 842.5,186.833 842.5,188.167 842.5,189.5C 829.167,189.5 815.833,189.5 802.5,189.5C 802.5,188.167 802.5,186.833 802.5,185.5C 807.691,185.324 811.524,182.991 814,178.5C 814.5,121.501 814.667,64.501 814.5,7.5C 808.491,7.33385 802.491,7.50051 796.5,8C 788.867,15.8932 785.367,25.3932 786,36.5C 784.293,37.1383 782.46,37.1383 780.5,36.5C 781.033,25.1739 781.366,13.8405 781.5,2.5C 808.833,2.5 836.167,2.5 863.5,2.5C 864.144,14.216 863.478,25.5493 861.5,36.5 Z"/></g>
<g><path style="opacity:1" fill="#f0f0f0" d="M 937.5,192.5 C 934.167,192.5 930.833,192.5 927.5,192.5C 913.087,190.258 904.254,181.925 901,167.5C 900.667,116.167 900.333,64.8333 900,13.5C 897.524,9.00905 893.691,6.67572 888.5,6.5C 888.5,5.16667 888.5,3.83333 888.5,2.5C 901.5,2.5 914.5,2.5 927.5,2.5C 927.5,3.83333 927.5,5.16667 927.5,6.5C 922.853,6.57139 919.353,8.57139 917,12.5C 916.333,64.5 916.333,116.5 917,168.5C 918.523,176.337 922.69,182.17 929.5,186C 943.97,188.854 953.47,183.354 958,169.5C 958.667,117.167 958.667,64.8333 958,12.5C 955.647,8.57139 952.147,6.57139 947.5,6.5C 947.5,5.16667 947.5,3.83333 947.5,2.5C 957.167,2.5 966.833,2.5 976.5,2.5C 976.5,3.83333 976.5,5.16667 976.5,6.5C 971.048,6.14367 967.215,8.477 965,13.5C 964.667,64.8333 964.333,116.167 964,167.5C 960.752,181.919 951.918,190.252 937.5,192.5 Z"/></g>
<g><path style="opacity:1" fill="#f5f5f5" d="M 1005.5,2.5 C 1020.17,2.33342 1034.84,2.50009 1049.5,3C 1063.07,6.90581 1072.57,15.4058 1078,28.5C 1086.31,49.5397 1089.81,71.3731 1088.5,94C 1089.61,116.801 1086.44,138.968 1079,160.5C 1073.1,175.737 1062.27,185.237 1046.5,189C 1032.84,189.5 1019.17,189.667 1005.5,189.5C 1005.5,188.167 1005.5,186.833 1005.5,185.5C 1011.37,184.995 1015.2,181.995 1017,176.5C 1017.67,122.167 1017.67,67.8333 1017,13.5C 1014.52,9.00905 1010.69,6.67572 1005.5,6.5C 1005.5,5.16667 1005.5,3.83333 1005.5,2.5 Z"/></g>
<g><path style="opacity:1" fill="#f7f7f7" d="M 1156.5,184.5 C 1157.21,185.404 1158.21,185.737 1159.5,185.5C 1159.5,186.833 1159.5,188.167 1159.5,189.5C 1146.5,189.5 1133.5,189.5 1120.5,189.5C 1120.5,188.167 1120.5,186.833 1120.5,185.5C 1126.18,185.415 1130.01,182.749 1132,177.5C 1132.67,122.833 1132.67,68.1667 1132,13.5C 1129.52,9.00905 1125.69,6.67572 1120.5,6.5C 1120.5,5.16667 1120.5,3.83333 1120.5,2.5C 1133.83,2.5 1147.17,2.5 1160.5,2.5C 1160.5,3.83333 1160.5,5.16667 1160.5,6.5C 1155.49,6.25631 1151.65,8.25631 1149,12.5C 1148.33,67.8333 1148.33,123.167 1149,178.5C 1150.48,181.817 1152.98,183.817 1156.5,184.5 Z"/></g>
<g><path style="opacity:1" fill="#010101" d="M 1230.5,5.5 C 1238.58,3.95968 1244.74,6.62634 1249,13.5C 1256.68,29.5737 1260.68,46.5737 1261,64.5C 1261.67,84.1667 1261.67,103.833 1261,123.5C 1260.43,135.655 1258.76,147.655 1256,159.5C 1254.32,169.567 1249.82,178.067 1242.5,185C 1233.58,188.294 1226.75,185.794 1222,177.5C 1217.39,167.654 1214.39,157.321 1213,146.5C 1208.36,111.501 1208.36,76.5007 1213,41.5C 1214.5,30.6781 1218.16,20.6781 1224,11.5C 1226.06,9.26589 1228.23,7.26589 1230.5,5.5 Z"/></g>
<g><path style="opacity:1" fill="#010101" d="M 244.5,7.5 C 264.901,6.0646 277.067,15.3979 281,35.5C 282.843,47.4816 282.843,59.4816 281,71.5C 277.998,92.6696 265.832,102.67 244.5,101.5C 244.5,70.1667 244.5,38.8333 244.5,7.5 Z"/></g>
<g><path style="opacity:1" fill="#010101" d="M 1033.5,7.5 C 1047.7,6.0193 1057.2,12.0193 1062,25.5C 1064.96,33.986 1067.3,42.6527 1069,51.5C 1072.67,82.2244 1072.33,112.891 1068,143.5C 1066.7,157.425 1061.53,169.592 1052.5,180C 1046.66,183.543 1040.33,185.043 1033.5,184.5C 1033.5,125.5 1033.5,66.5 1033.5,7.5 Z"/></g>
<g><path style="opacity:1" fill="#7b7b7b" d="M 858.5,31.5 C 858.972,33.5313 859.972,35.1979 861.5,36.5C 860.791,37.404 859.791,37.7373 858.5,37.5C 858.5,35.5 858.5,33.5 858.5,31.5 Z"/></g>
<g><path style="opacity:1" fill="#535353" d="M 379.5,55.5 C 378.833,54.8333 378.167,54.1667 377.5,53.5C 377.343,52.1266 377.51,50.7932 378,49.5C 379.128,51.3453 379.628,53.3453 379.5,55.5 Z"/></g>
<g><path style="opacity:1" fill="#060606" d="M 377.5,53.5 C 378.167,54.1667 378.833,54.8333 379.5,55.5C 384.33,85.4754 388.997,115.475 393.5,145.5C 382.5,145.5 371.5,145.5 360.5,145.5C 366.382,114.876 372.049,84.2089 377.5,53.5 Z"/></g>
<g><path style="opacity:1" fill="#050505" d="M 1279.5,113.5 C 1279.5,139.833 1279.5,166.167 1279.5,192.5C 1266.83,192.5 1254.17,192.5 1241.5,192.5C 1253.24,188.605 1261.74,180.938 1267,169.5C 1274.17,151.372 1278.34,132.705 1279.5,113.5 Z"/></g>
<g><path style="opacity:1" fill="#3e3e3e" d="M 394.5,151.5 C 382.753,151.189 371.086,151.522 359.5,152.5C 364.96,151.171 370.793,150.504 377,150.5C 383.01,150.501 388.843,150.834 394.5,151.5 Z"/></g>
<g><path style="opacity:1" fill="#f3f3f3" d="M 174.5,192.5 C 172.167,192.5 169.833,192.5 167.5,192.5C 156.358,186.361 154.691,178.194 162.5,168C 171.911,163.071 179.078,165.238 184,174.5C 185.765,183.312 182.598,189.312 174.5,192.5 Z"/></g>
<g><path style="opacity:1" fill="#5a5a5a" d="M 1156.5,184.5 C 1157.83,184.5 1159.17,184.5 1160.5,184.5C 1160.78,186.415 1160.45,188.081 1159.5,189.5C 1159.5,188.167 1159.5,186.833 1159.5,185.5C 1158.21,185.737 1157.21,185.404 1156.5,184.5 Z"/></g>
</svg>
